<svg width="57" height="39" viewBox="0 0 57 39" fill="none" xmlns="http://www.w3.org/2000/svg">
    <path d="M29.7886 11.2342H2.54112C1.14644 11.2342 0 12.3653 0 13.7754V30.4586C0 31.8708 1.1465 32.9997 2.54112 32.9997H4.78356C5.32385 32.9997 5.74996 33.428 5.74996 33.9617V38.8748L11.3505 33.2743C11.535 33.1052 11.7788 32.9931 12.0358 32.9931H29.7975C31.2031 32.9931 32.3386 31.8621 32.3386 30.452L32.3408 13.7755C32.3298 12.3655 31.1987 11.2342 29.7886 11.2342ZM16.0746 29.2551C16.0746 29.7734 15.6463 30.2171 15.1082 30.2171C14.5899 30.2171 14.1638 29.7734 14.1638 29.2551V28.851C14.1638 28.3107 14.5921 27.889 15.1082 27.889C15.6485 27.889 16.0746 28.3173 16.0746 28.851V29.2551ZM16.1647 24.6165C16.1076 24.6165 16.0746 24.6736 16.0746 24.7131V26.3604C16.0746 26.8941 15.6463 27.3223 15.1082 27.3223C14.5899 27.3223 14.1638 26.894 14.1638 26.3604V24.7131C14.1638 24.656 14.1638 24.5835 14.1814 24.5286C14.2538 23.5842 15.0138 22.8023 15.9801 22.7299C16.0372 22.7123 16.1097 22.7123 16.1646 22.7123C17.981 22.7123 19.4415 21.2276 19.4415 19.4288C19.4415 17.6125 17.9787 16.1454 16.1646 16.1454C14.3482 16.1454 12.8811 17.6081 12.8811 19.4288C12.8811 19.9472 12.4529 20.3733 11.9192 20.3733C11.4009 20.3733 10.9528 19.945 10.9528 19.4288C10.9528 16.556 13.2919 14.217 16.1646 14.217C19.0373 14.217 21.3721 16.5561 21.3721 19.4288C21.3764 22.2818 19.0375 24.6165 16.1647 24.6165Z" fill="#323232"/>
    <path d="M53.707 0.000306758H26.4551C25.0428 0.000306758 23.9139 1.1314 23.9139 2.51949V9.30592H29.7889C32.2576 9.30592 34.2584 11.3068 34.2584 13.7754V21.7656H44.2165C44.4757 21.7656 44.7173 21.8623 44.9018 22.0468L50.5024 27.6473V22.7342C50.5024 22.2005 50.9461 21.7722 51.4688 21.7722H53.7112C55.0993 21.7722 56.2304 20.6257 56.2304 19.2311L56.2326 2.51916C56.226 1.13106 55.0951 0.000306758 53.707 0.000306758ZM41.045 17.351C41.045 17.8913 40.6014 18.3129 40.0786 18.3129C39.5383 18.3129 39.1167 17.8846 39.1167 17.351V16.2594C39.1167 15.7411 39.5449 15.315 40.0786 15.315C40.597 15.315 41.045 15.7433 41.045 16.2594V17.351ZM41.045 12.9034C41.045 13.4437 40.6014 13.8654 40.0786 13.8654C39.5383 13.8654 39.1167 13.4371 39.1167 12.9034V4.28515C39.1167 3.74485 39.5449 3.32318 40.0786 3.32318C40.597 3.32318 41.045 3.75146 41.045 4.28515V12.9034Z" fill="#323232"/>
    </svg>
    